PathFileType	4	(X/Y/Z)	G:\Shared drives\HPL_Drive\Nord Sprinting Study\Kristen_Nord_test\Trimmed_Nord000003.trc
DataRate	CameraRate	NumFrames	NumMarkers	Units	OrigDataRate	OrigDataStartFrame	OrigNumFrames
200.00	200.00	      7	52	mm	200.00	1195	      1592
Frame#	Time	C7			R_Shoulder			L_Shoulder			Sternum			R_humerus			R_elbow_med			R_elbow_lat			R_forearm			R_wrist_radius			R_wrist_ulna			L_humerus			L_elbow_med			L_elbow_lat			L_forearm			L_wrist_radius			L_wrist_ulna			r.ASIS			r.PSIS			r_IC			L.ASIS			L.PSIS			l_IC			r_thigh1			r_thigh2			r_thigh3			r_thigh4			r_thigh5			r_knee			r_mknee			r_shank_antsup			r_sh2			r_sh3			r_sh4			r_ankle			r_mankle			r_calc			r_5meta			r_toe			L_thigh1			L_thigh2			L_thigh3			L_thigh4			L_knee			L_mknee			L_shank_antsup			L_sh2			L_sh3			L_ankle			L_mankle			L_calc			L_5meta			L_toe			
		X1	Y1	Z1	X2	Y2	Z2	X3	Y3	Z3	X4	Y4	Z4	X5	Y5	Z5	X6	Y6	Z6	X7	Y7	Z7	X8	Y8	Z8	X9	Y9	Z9	X10	Y10	Z10	X11	Y11	Z11	X12	Y12	Z12	X13	Y13	Z13	X14	Y14	Z14	X15	Y15	Z15	X16	Y16	Z16	X17	Y17	Z17	X18	Y18	Z18	X19	Y19	Z19	X20	Y20	Z20	X21	Y21	Z21	X22	Y22	Z22	X23	Y23	Z23	X24	Y24	Z24	X25	Y25	Z25	X26	Y26	Z26	X27	Y27	Z27	X28	Y28	Z28	X29	Y29	Z29	X30	Y30	Z30	X31	Y31	Z31	X32	Y32	Z32	X33	Y33	Z33	X34	Y34	Z34	X35	Y35	Z35	X36	Y36	Z36	X37	Y37	Z37	X38	Y38	Z38	X39	Y39	Z39	X40	Y40	Z40	X41	Y41	Z41	X42	Y42	Z42	X43	Y43	Z43	X44	Y44	Z44	X45	Y45	Z45	X46	Y46	Z46	X47	Y47	Z47	X48	Y48	Z48	X49	Y49	Z49	X50	Y50	Z50	X51	Y51	Z51	X52	Y52	Z52	

1195	5.970	1220.15527	86.00024	1269.49072	1332.73535	151.08424	1287.46533	1081.55994	112.79802	1291.93909	1195.58655	220.61389	1239.84668	1504.76147	130.57219	1257.15430	1634.36096	170.30475	1173.29443	1633.24084	100.89001	1213.49182	1607.48328	150.62862	1329.19739	1551.05798	216.97183	1408.37012	1596.89636	211.70209	1424.74402	897.56006	37.56103	1246.51697	779.47742	62.42318	1164.39307	791.38696	-8.15645	1194.61316	816.51959	49.31064	1328.93201	797.84357	101.60102	1410.14795	853.62726	105.94048	1399.79541	1313.56055	306.21704	804.07422	1282.15247	116.29729	822.37793	1361.69714	218.50471	864.96509	1075.41223	279.38132	798.44159	1167.29504	106.11206	816.58893	1055.07507	194.81427	853.16797	1381.53455	336.34900	540.21716	1382.05835	357.20920	427.34067	1398.48242	317.19681	391.30380	1395.43933	230.54131	523.53094	1383.77100	252.42458	407.15659	1382.98816	337.92084	315.09445	1253.48242	314.95932	313.69849	1408.24390	220.79562	283.41592	1402.95532	99.77390	274.70422	1413.81323	210.75438	359.41809	1409.58411	95.02852	357.39798	1410.90845	-73.57381	314.25531	1328.75439	-64.92168	288.94998	1367.60120	-103.66581	374.65231	1416.90369	-144.42415	209.73216	1372.99597	-122.99667	166.20006	1010.93323	316.57468	544.85822	1010.66101	346.74643	408.16519	1022.09900	199.02238	523.95178	1025.06262	232.91403	389.36200	999.79401	303.20193	330.97531	1131.31067	313.90247	306.39120	983.55847	203.17139	300.83380	1007.93005	197.16153	387.04492	1015.57983	78.44978	368.64630	1012.35406	-92.03081	317.60422	1089.52881	-66.41022	276.11862	1062.82886	-100.68794	366.40408	1009.51605	-174.71938	205.78064	1048.89417	-149.11644	153.54048	
1196	5.975	1220.06775	86.20400	1269.47473	1332.77551	151.27634	1287.46411	1081.45166	113.04931	1292.02136	1195.57397	220.84401	1239.98486	1504.65979	130.44858	1256.97168	1634.27112	170.18198	1172.85168	1633.15405	100.82157	1213.02808	1607.75232	150.50403	1328.78271	1551.58569	216.90465	1408.20630	1597.44092	211.73065	1424.45813	897.43347	38.00323	1246.44543	779.40979	62.87411	1164.25867	791.28778	-7.69009	1194.41003	816.23883	49.70802	1328.76538	797.42682	102.05886	1409.98828	853.19537	106.34528	1399.70227	1313.56592	306.25916	804.06067	1282.12903	116.32358	822.32697	1362.06299	218.64742	864.96539	1075.43982	279.55167	798.31909	1167.20313	106.22118	816.47150	1055.06567	194.96989	853.17804	1381.59497	336.39926	540.17255	1382.06226	357.23938	427.31482	1398.50696	317.24673	391.25787	1394.61694	230.72737	523.32159	1383.40112	252.78065	406.81778	1383.04517	337.94412	315.00043	1253.48022	315.01385	313.70181	1408.30115	220.81558	283.40393	1402.93262	99.76291	274.70282	1413.78003	210.73044	359.42731	1409.53186	95.01484	357.40945	1410.84668	-73.57852	314.18375	1328.64734	-64.91055	288.93494	1367.52502	-103.63289	374.62579	1416.87732	-144.39191	209.66095	1373.38940	-122.81700	166.00847	1010.96967	316.70673	544.86780	1010.66351	346.79776	408.14932	1022.06207	199.13223	523.95197	1025.03845	232.97968	389.36661	999.80750	303.25040	330.94409	1131.35449	313.91293	306.40292	983.58850	203.22807	300.76627	1007.91241	197.71463	387.01715	1015.53143	78.45687	368.59119	1012.25653	-91.97031	317.56879	1089.50037	-66.38512	276.01266	1062.73547	-100.65292	366.45120	1009.44495	-174.68341	205.75130	1048.82886	-149.08302	153.65625	
1197	5.980	1220.00952	86.39008	1269.45593	1332.77087	151.43295	1287.47644	1081.38245	113.33786	1292.08301	1195.58496	221.08386	1240.13684	1504.64697	130.44319	1256.75452	1634.18738	170.08284	1172.46863	1633.04858	100.73142	1212.67761	1607.94775	150.52016	1328.51758	1552.05151	216.89481	1408.10437	1598.03015	211.64241	1424.14893	897.31818	38.35133	1246.40454	779.32245	63.37675	1164.16956	791.15100	-7.17804	1194.25586	815.89850	50.14674	1328.77710	797.04333	102.43638	1409.88110	852.77393	106.71953	1399.64661	1313.64380	306.36407	804.03082	1282.08313	116.37637	822.31488	1362.07471	218.70338	864.94165	1075.47388	279.65027	798.40131	1167.16760	106.38500	816.37128	1055.03748	195.13251	853.15894	1381.58679	336.43677	540.15662	1382.06409	357.28299	427.30829	1398.51099	317.27255	391.23639	1395.07080	230.49405	523.21722	1383.39880	252.81296	406.77087	1383.05005	338.01236	314.85361	1253.50195	315.06848	313.68723	1408.19580	220.81244	283.30994	1402.91443	99.78330	274.70276	1413.75232	210.74023	359.44180	1409.47144	95.05923	357.40210	1410.79285	-73.54984	314.12833	1327.70093	-64.96021	288.90140	1367.43396	-103.57613	374.57281	1416.83862	-144.38531	209.61862	1373.42310	-122.84321	165.83563	1011.02368	316.78583	544.78467	1010.64313	346.82782	408.02420	1022.00659	199.20537	523.96936	1025.01196	233.06444	389.36536	999.82837	303.27643	330.94479	1131.32629	313.92059	306.37509	983.56512	203.28688	300.62787	1007.85022	197.74080	387.02597	1015.49567	78.47845	368.53586	1012.15790	-91.89363	317.52942	1089.42712	-66.39420	275.97610	1062.72229	-100.61897	366.30435	1009.38477	-174.65430	205.65564	1048.81335	-149.03600	153.61684	
1198	5.985	1219.91663	86.54214	1269.42712	1332.78760	151.57916	1287.48303	1081.26990	113.61214	1292.15051	1195.54309	221.30653	1240.29883	1504.62903	130.44044	1256.55774	1634.11047	169.99445	1172.17712	1632.96313	100.68428	1212.27856	1608.14136	150.45453	1328.26636	1553.10632	216.58363	1407.93884	1598.53918	211.55336	1423.88245	897.20013	38.77755	1246.36304	779.25537	63.90208	1164.08228	790.98132	-6.69392	1194.19556	815.58142	50.57734	1328.68799	796.60797	102.88793	1409.83044	852.40924	107.17604	1399.63708	1313.65417	306.34521	803.98779	1282.08997	116.45307	822.21820	1361.76794	218.62541	864.84296	1075.45752	279.71585	798.37848	1167.18164	106.37103	816.44098	1055.02844	195.28006	853.17639	1381.59399	336.41571	540.12811	1382.09277	357.32074	427.30487	1398.53857	317.30914	391.22122	1395.07910	230.54190	523.17346	1383.47778	252.85124	406.75232	1383.11023	337.93231	314.83743	1253.48743	315.10416	313.66647	1409.27283	221.35777	284.24173	1402.91284	99.76820	274.69894	1413.70874	210.74667	359.42780	1409.41479	95.07101	357.39896	1410.73865	-73.52181	314.01929	1328.50586	-64.84483	288.88409	1367.35327	-103.54841	374.55328	1416.82532	-144.38136	209.60803	1372.87427	-123.08846	165.61351	1011.02240	316.87903	544.78906	1010.74072	347.05182	407.99521	1021.98651	199.35890	523.97748	1025.00037	233.12607	389.33578	999.84656	303.30847	330.92313	1131.37195	313.91943	306.35776	983.56012	203.23009	300.79727	1007.87585	197.75209	387.04544	1015.51276	78.48561	368.51450	1012.05463	-91.86776	317.56592	1088.23743	-65.88288	275.26154	1062.61902	-100.54036	366.30127	1009.32758	-174.61368	205.73874	1048.78882	-149.02678	153.58096	
1199	5.990	1219.77405	86.18317	1269.49500	1332.81885	151.71773	1287.43555	1081.20422	113.88445	1292.24133	1195.59570	221.54146	1240.35608	1504.58655	130.43420	1256.43445	1634.04272	169.92624	1171.81799	1632.86755	100.58834	1211.98438	1608.40796	150.39444	1327.98267	1553.52930	216.57822	1407.87646	1598.93433	211.52817	1423.58447	897.10229	39.18326	1246.28662	779.22534	64.40749	1164.01917	790.87775	-6.17941	1194.05701	815.32556	51.03740	1328.61914	796.15540	103.30369	1409.73059	852.19922	107.59514	1399.63696	1313.70313	306.40039	803.94330	1282.06787	116.47612	822.16705	1361.94666	218.61874	864.84436	1075.50854	279.92169	798.24786	1167.10400	106.45773	816.34442	1054.98718	195.46379	853.14246	1381.64502	336.46921	540.07794	1382.09656	357.31982	427.28488	1398.52966	317.32886	391.21301	1395.48755	230.66962	523.46191	1383.44873	252.86656	406.70837	1383.12671	337.98358	314.80966	1253.46875	315.13162	313.65302	1408.20898	220.79068	283.23618	1402.88770	99.74597	274.69537	1413.68738	210.75821	359.45282	1409.37476	95.10108	357.40393	1410.66565	-73.54131	314.01645	1328.45166	-64.83747	288.87534	1367.30054	-103.51857	374.48349	1416.82141	-144.35921	209.50481	1373.48853	-122.82036	165.71611	1011.03357	317.05371	544.78290	1010.76685	347.16803	407.96426	1021.42450	200.51790	523.92548	1024.97754	233.19946	389.30261	999.86523	303.37811	330.88620	1131.34192	313.89340	306.35794	983.51892	203.26669	300.61298	1007.85272	197.82729	386.99460	1015.49017	78.50226	368.45850	1011.94849	-91.78751	317.50912	1088.18591	-65.81386	275.19128	1062.57434	-100.48512	366.28882	1009.28888	-174.56291	205.65204	1048.73389	-148.96912	153.63860	
1200	5.995	1219.72522	86.37531	1269.48169	1332.80176	151.84734	1287.43884	1081.11414	114.15601	1292.32861	1195.60022	221.72261	1240.49841	1504.57227	130.43271	1256.25000	1633.95557	169.87529	1171.51868	1632.78638	100.53449	1211.71082	1608.68628	150.34322	1327.78369	1553.44031	216.55588	1407.86108	1599.47559	211.49516	1423.51733	896.97388	39.55233	1246.29626	779.14032	64.96473	1163.97986	790.73425	-5.67083	1194.02576	815.01215	51.51661	1328.62317	796.31744	103.63893	1409.71570	851.79419	108.04662	1399.74597	1313.74219	306.41678	804.05829	1282.03308	116.52653	822.13574	1361.94983	218.64336	864.82294	1075.48450	279.92740	798.37256	1167.11182	106.54575	816.28656	1054.98254	195.68098	853.12451	1381.62097	336.47821	540.08295	1382.07751	357.38464	427.30164	1398.54529	317.37997	391.21317	1395.47827	230.70132	523.43372	1383.48792	252.92244	406.69202	1383.13196	337.96313	314.77313	1253.48352	315.16403	313.65372	1408.11035	220.77795	283.15494	1402.82715	99.75440	274.65707	1413.65771	210.76392	359.44333	1409.35339	95.09636	357.43970	1410.61597	-73.48943	314.00064	1327.48950	-64.86465	288.87036	1367.20593	-103.48381	374.45959	1416.78113	-144.36084	209.47481	1372.97668	-123.03853	165.69196	1011.05206	317.15570	544.74829	1010.76910	347.19995	407.94809	1021.92584	199.53333	523.96649	1024.97217	233.27158	389.31281	999.88031	303.41617	330.89413	1131.35046	313.92993	306.34155	983.53314	203.27795	300.67307	1007.84119	197.81342	387.00119	1015.48114	78.52186	368.42764	1011.86139	-91.73504	317.47092	1088.09998	-65.80193	275.19016	1062.48804	-100.46726	366.23578	1009.21613	-174.51041	205.65338	1048.66907	-148.92935	153.62782	
1201	6.000	1219.67456	86.55564	1269.48022	1332.76904	151.97404	1287.51318	1081.03540	114.43552	1292.42493	1195.57239	221.94128	1240.65662	1504.54297	130.41545	1256.16040	1633.87854	169.84821	1171.30920	1632.74231	100.50240	1211.40894	1608.91980	150.31709	1327.62012	1553.89282	216.55000	1407.84497	1600.03113	211.47786	1423.35364	896.82660	40.01418	1246.37305	778.89679	66.27991	1163.31653	790.61493	-5.06957	1193.99084	814.72943	52.04914	1328.63708	795.91003	104.10985	1409.69995	851.38263	108.48943	1399.80042	1313.75940	306.37006	804.00085	1281.99487	116.54825	822.09570	1361.94849	218.62633	864.79626	1075.51819	280.05878	798.32745	1167.07275	106.58980	816.30725	1054.97302	195.82864	853.14917	1381.65198	336.48154	540.08197	1382.07190	357.39099	427.30405	1398.54797	317.38635	391.18005	1395.52368	230.73779	523.41022	1382.16138	253.52367	405.93414	1383.18640	337.98276	314.68518	1253.47803	315.18329	313.64224	1409.09546	221.32253	284.24872	1402.83228	99.76402	274.66138	1413.63586	210.75089	359.46219	1409.27539	95.09560	357.42224	1410.57825	-73.51274	313.93118	1328.31213	-64.80406	288.86600	1367.15881	-103.45206	374.46793	1416.71082	-144.38087	209.50060	1372.97192	-123.06083	165.48618	1011.10089	317.26257	544.74518	1010.72577	347.24554	407.84415	1021.93213	199.56094	523.96191	1024.97510	233.34543	389.29361	999.89478	303.46964	330.85767	1131.34424	313.90811	306.33536	983.50873	203.26456	300.70731	1007.84363	197.22301	386.98602	1015.47931	78.54868	368.40134	1011.79517	-91.68123	317.48785	1088.08960	-65.78853	275.09409	1062.42029	-100.38125	366.16986	1009.21405	-174.45433	205.63599	1048.64807	-148.87849	153.60915	
